# File created by Blade
# Date/Time:  Tue Sep 30 19:29:42 2014
#---------------------------------------------------------
:version 1.10
:name HOM
:units
  mass 1.0
  length 1.000000
  angle deg
:documentation
     Acclaim Skeleton File
:root
   axis xyz
   order TX TY TZ RX RY RZ
   position 0.000000 0.000000 0.000000
   orientation 0 0 0
:bonedata
   begin
      id 1
      name RightUpLeg_dum
      direction -1.000000 0.000000 0.000000
      length 3.766986
      axis 0.0 0.0 0.0 xyz
   end
   begin
      id 2
      name LeftUpLeg_dum
      direction 1.000000 0.000000 0.000000
      length 3.766986
      axis 0.0 0.0 0.0 xyz
   end
   begin
      id 3
      name Spine_dum
      direction 0.000000 1.000000 0.000000
      length 7.779697
      axis 0.0 0.0 0.0 xyz
   end
   begin
      id 4
      name RightUpLeg
      direction 0.000000 -1.000000 0.000000
      length 18.017682
      axis 0.0 0.0 0.0 xyz
      dof rx ry rz
   end
   begin
      id 5
      name RightLeg
      direction 0.000000 -1.000000 0.000000
      length 16.881075
      axis 0.0 0.0 0.0 xyz
      dof rx ry rz
   end
   begin
      id 6
      name RightFoot
      direction 0.000000 -0.258819 0.965926
      length 5.770812
      axis 15.0 0.0 0.0 xyz
      dof rx ry rz
   end
   begin
      id 7
      name RightToeBase
      direction 0.000000 0.000000 1.000000
      length 2.952750
      axis 0.0 0.0 0.0 xyz
      dof rx ry rz
   end
   begin
      id 8
      name LeftUpLeg
      direction 0.000000 -1.000000 0.000000
      length 18.017682
      axis 0.0 0.0 0.0 xyz
      dof rx ry rz
   end
   begin
      id 9
      name LeftLeg
      direction 0.000000 -1.000000 0.000000
      length 16.881075
      axis 0.0 0.0 0.0 xyz
      dof rx ry rz
   end
   begin
      id 10
      name LeftFoot
      direction 0.000000 -0.258819 0.965926
      length 5.770812
      axis 15.0 0.0 0.0 xyz
      dof rx ry rz
   end
   begin
      id 11
      name LeftToeBase
      direction 0.000000 0.000000 1.000000
      length 2.952750
      axis 0.0 0.0 0.0 xyz
      dof rx ry rz
   end
   begin
      id 12
      name Spine
      direction 0.000000 1.000000 0.000000
      length 0.000000
      axis 0.0 0.0 0.0 xyz
      dof rx ry rz
   end
   begin
      id 13
      name Spine_dum1
      direction 0.000000 1.000000 0.000000
      length 10.941760
      axis 0.0 0.0 0.0 xyz
   end
   begin
      id 14
      name Spine_dum2
      direction 0.000000 1.000000 0.000000
      length 10.941760
      axis 0.0 0.0 0.0 xyz
   end
   begin
      id 15
      name Spine_dum3
      direction 0.000000 1.000000 0.000000
      length 16.646042
      axis 0.0 0.0 0.0 xyz
   end
   begin
      id 16
      name RightShoulder
      direction -1.000000 0.000000 0.000000
      length 7.708937
      axis 0.0 0.0 90.0 xyz
      dof rx ry rz
   end
   begin
      id 17
      name RightArm
      direction -1.000000 0.000000 0.000000
      length 11.521345
      axis 0.0 0.0 90.0 xyz
      dof rx ry rz
   end
   begin
      id 18
      name RightForeArm
      direction -1.000000 0.000000 0.000000
      length 10.175898
      axis 0.0 0.0 90.0 xyz
      dof ry rz rx
   end
   begin
      id 19
      name RightHand
      direction -1.000000 0.000000 0.000000
      length 0.000000
      axis 0.0 0.0 90.0 xyz
      dof rx ry rz
   end
   begin
      id 20
      name RightHand_dum1
      direction -1.000000 0.000000 0.000000
      length 3.937000
      axis 0.0 0.0 90.0 xyz
   end
   begin
      id 21
      name RightHand_dum2
      direction 0.000000 0.000000 0.000000
      length 0.000000
      axis 0.0 0.0 90.0 xyz
   end
   begin
      id 22
      name RightHandThumb1
      direction 0.000000 0.000000 1.000000
      length 3.937000
      axis 0.0 0.0 90.0 xyz
      dof rx rz ry
   end
   begin
      id 23
      name LeftShoulder
      direction 1.000000 0.000000 0.000000
      length 7.708937
      axis 0.0 0.0 -90.0 xyz
      dof rx ry rz
   end
   begin
      id 24
      name LeftArm
      direction 1.000000 0.000000 0.000000
      length 11.521345
      axis 0.0 0.0 -90.0 xyz
      dof rx ry rz
   end
   begin
      id 25
      name LeftForeArm
      direction 1.000000 0.000000 0.000000
      length 10.175898
      axis 0.0 0.0 -90.0 xyz
      dof ry rz rx
   end
   begin
      id 26
      name LeftHand
      direction 1.000000 0.000000 0.000000
      length 0.000000
      axis 0.0 0.0 -90.0 xyz
      dof rx ry rz
   end
   begin
      id 27
      name LeftHand_dum1
      direction 1.000000 0.000000 0.000000
      length 3.937000
      axis 0.0 0.0 -90.0 xyz
   end
   begin
      id 28
      name LeftHand_dum2
      direction 0.000000 0.000000 0.000000
      length 0.000000
      axis 0.0 0.0 -90.0 xyz
   end
   begin
      id 29
      name LeftHandThumb1
      direction 0.000000 0.000000 1.000000
      length 3.937000
      axis 0.0 0.0 -90.0 xyz
      dof rx rz ry
   end
   begin
      id 30
      name Head
      direction 0.000000 1.000000 0.000000
      length 4.527550
      axis 0.0 0.0 0.0 xyz
      dof rx ry rz
   end
:hierarchy
   begin
      root RightUpLeg_dum LeftUpLeg_dum Spine_dum
      RightUpLeg_dum RightUpLeg
      LeftUpLeg_dum LeftUpLeg
      Spine_dum Spine
      RightUpLeg RightLeg
      RightLeg RightFoot
      RightFoot RightToeBase
      LeftUpLeg LeftLeg
      LeftLeg LeftFoot
      LeftFoot LeftToeBase
      Spine Spine_dum1 Spine_dum2 Spine_dum3
      Spine_dum1 RightShoulder
      Spine_dum2 LeftShoulder
      Spine_dum3 Head
      RightShoulder RightArm
      RightArm RightForeArm
      RightForeArm RightHand
      RightHand RightHand_dum1 RightHand_dum2
      RightHand_dum2 RightHandThumb1
      LeftShoulder LeftArm
      LeftArm LeftForeArm
      LeftForeArm LeftHand
      LeftHand LeftHand_dum1 LeftHand_dum2
      LeftHand_dum2 LeftHandThumb1
   end

# File created by Blade
# Date/Time:  Mon Sep 22 17:38:34 2014
# Frame Rate: 120.000 fps
#------------------------------------------------------
:FULLY-SPECIFIED
:DEGREES
1
root 3.719433 37.223704 5.698040 -5.589948 -4.931557 3.165025
RightUpLeg 11.891601 -4.288553 -1.576889
RightLeg -3.787305 -0.000000 0.000000
RightFoot -13.305429 -17.375693 14.777489
RightToeBase 14.718853 -0.000000 -0.000000
LeftUpLeg 10.087893 -2.003527 -4.288064
LeftLeg -1.894210 -0.000000 0.000000
LeftFoot -9.411712 18.028856 -16.759713
LeftToeBase 9.189544 -0.000000 -0.000000
Spine 11.559958 -3.616668 -2.456031
RightShoulder -3.280192 -30.277983 -8.882922
RightArm 27.725601 -24.361422 54.455009
RightForeArm -7.097387 0.000000 62.234061
RightHand -0.897627 -0.000000 3.422251
RightHandThumb1 -24.326973 -0.000000 -32.862282
LeftShoulder -21.754974 32.490743 2.432431
LeftArm 52.327992 -34.729325 -78.808631
LeftForeArm 6.706257 -0.000000 80.854788
LeftHand -39.499306 -0.000000 14.016563
LeftHandThumb1 -26.253704 0.000000 33.147579
Head 15.680367 14.663960 1.147364
2
root 3.705451 37.224445 5.704121 -5.638123 -4.998389 3.163678
RightUpLeg 11.918652 -4.252710 -1.552692
RightLeg -3.740120 -0.000000 0.000000
RightFoot -13.319396 -17.361496 14.750931
RightToeBase 14.716684 -0.000000 -0.000000
LeftUpLeg 10.109748 -2.011524 -4.275018
LeftLeg -1.818981 -0.000000 0.000000
LeftFoot -9.465540 18.071492 -16.776538
LeftToeBase 9.208705 -0.000000 -0.000000
Spine 11.624487 -3.713096 -2.417870
RightShoulder -3.292401 -30.373071 -8.860533
RightArm 27.789989 -24.693906 54.440503
RightForeArm -7.107777 -0.000000 61.939192
RightHand -0.925335 0.000000 3.012863
RightHandThumb1 -24.326973 -0.000000 -32.862282
LeftShoulder -21.700667 32.433418 2.425802
LeftArm 52.267260 -34.574562 -78.836970
LeftForeArm 6.534494 -0.000000 80.545265
LeftHand -39.063451 0.000000 14.325778
LeftHandThumb1 -26.253704 0.000000 33.147579
Head 15.709008 14.864745 1.080830
3
root 3.690534 37.224836 5.710870 -5.687264 -5.069822 3.161853
RightUpLeg 11.950554 -4.211591 -1.529759
RightLeg -3.698404 -0.000000 0.000000
RightFoot -13.341440 -17.337580 14.746729
RightToeBase 14.734460 -0.000000 -0.000000
LeftUpLeg 10.132814 -1.995110 -4.256111
LeftLeg -1.739100 -0.000000 0.000000
LeftFoot -9.515062 18.099124 -16.809960
LeftToeBase 9.143834 -0.000000 -0.000000
Spine 11.687434 -3.828828 -2.384288
RightShoulder -3.283825 -30.468891 -8.853670
RightArm 27.868755 -25.008817 54.403072
RightForeArm -7.106634 0.000000 61.624669
RightHand -0.875863 -0.000000 3.107083
RightHandThumb1 -24.326973 -0.000000 -32.862282
LeftShoulder -21.689738 32.406669 2.389398
LeftArm 52.192399 -34.404294 -78.807228
LeftForeArm 6.332761 -0.000000 80.228127
LeftHand -38.694293 -0.000000 14.565686
LeftHandThumb1 -26.253704 0.000000 33.147579
Head 15.713278 15.054275 0.991618
4
root 3.674765 37.224933 5.716968 -5.733825 -5.124177 3.162836
RightUpLeg 11.980038 -4.232225 -1.517093
RightLeg -3.652183 -0.000000 0.000000
RightFoot -13.345366 -17.279287 14.711091
RightToeBase 14.725515 -0.000000 -0.000000
LeftUpLeg 10.136790 -1.981998 -4.241177
LeftLeg -1.631470 -0.000000 0.000000
LeftFoot -9.582562 18.137362 -16.819167
LeftToeBase 9.204662 -0.000000 -0.000000
Spine 11.744758 -3.926716 -2.352033
RightShoulder -3.332831 -30.563404 -8.811117
RightArm 27.962916 -25.320800 54.341179
RightForeArm -6.933586 -0.000000 61.273600
RightHand -0.826891 -0.000000 3.084172
RightHandThumb1 -24.326973 -0.000000 -32.862282
LeftShoulder -21.600179 32.377691 2.393144
LeftArm 52.093324 -34.288650 -78.807207
LeftForeArm 6.153633 -0.000000 79.987992
LeftHand -39.003921 -0.000000 14.507561
LeftHandThumb1 -26.253704 0.000000 33.147579
Head 15.730594 15.225987 0.939343
5
root 3.657642 37.225353 5.721835 -5.775463 -5.192738 3.162640
RightUpLeg 12.000975 -4.295020 -1.508457
RightLeg -3.609369 -0.000000 0.000000
RightFoot -13.335640 -17.169649 14.656990
RightToeBase 14.730010 -0.000000 -0.000000
LeftUpLeg 10.131712 -1.946554 -4.222156
LeftLeg -1.511477 -0.000000 0.000000
LeftFoot -9.648384 18.176763 -16.803926
LeftToeBase 9.203870 -0.000000 -0.000000
Spine 11.803038 -4.039524 -2.323841
RightShoulder -3.355988 -30.617033 -8.781459
RightArm 27.945962 -25.574560 54.368709
RightForeArm -7.043714 -0.000000 60.989445
RightHand -1.021723 -0.000000 3.178594
RightHandThumb1 -24.326973 -0.000000 -32.862282
LeftShoulder -21.586532 32.402363 2.335395
LeftArm 52.100024 -34.175555 -78.861516
LeftForeArm 6.020536 -0.000000 79.668248
LeftHand -38.646569 0.000000 15.110202
LeftHandThumb1 -26.253704 0.000000 33.147579
Head 15.723057 15.390436 0.879480
6
root 3.642711 37.225112 5.729301 -5.835933 -5.255645 3.173757
RightUpLeg 12.055498 -4.261289 -1.498923
RightLeg -3.588247 -0.000000 0.000000
RightFoot -13.345063 -17.159021 14.611655
RightToeBase 14.688096 -0.000000 -0.000000
LeftUpLeg 10.151029 -1.961148 -4.225282
LeftLeg -1.395716 -0.000000 0.000000
LeftFoot -9.669494 18.242119 -16.748384
LeftToeBase 9.033400 -0.000000 -0.000000
Spine 11.879532 -4.159960 -2.305625
RightShoulder -3.366155 -30.659851 -8.758619
RightArm 27.903100 -25.783280 54.411566
RightForeArm -7.027749 -0.000000 60.687002
RightHand -0.960925 0.000000 3.265685
RightHandThumb1 -24.326973 -0.000000 -32.862282
LeftShoulder -21.545791 32.424362 2.297051
LeftArm 52.035852 -34.082462 -78.873162
LeftForeArm 5.630830 0.000000 79.417646
LeftHand -38.513811 -0.000000 15.368744
LeftHandThumb1 -26.253704 0.000000 33.147579
Head 15.692257 15.575365 0.814549
